# xmcd
#
# Track frame offsets: 
#        150
#        20428
#        43175
#        60678
#        86118
#        106298
#
# Disc length: 1741 seconds
#
# Revision: 0
# Processed by: cddbd v1.5.2PL0 Copyright (c) Steve Scherf et al.
# Submitted via: ExactAudioCopyFreeDBPlugin 1.0
#
DISCID=4a06cb06
DTITLE=Silk - Hooked On You [CDS)
DYEAR=1992
DGENRE=R&B
TTITLE0=Hooked On You (Radio Edit)
TTITLE1=Hooked On You (DJ Clark Kent Remix)
TTITLE2=Hooked On You (Trackmasters Remíx)
TTITLE3=Hooked On You (Chucklife Remix)
TTITLE4=Hooked On You (Trackmasters Hip Hop Remix)
TTITLE5=Hooked On You (Original Extended Mix)
EXTD=YEAR: 1992 ID3G: 42
EXTT0=
EXTT1=
EXTT2=
EXTT3=
EXTT4=
EXTT5=
PLAYORDER=
